<svg id="Logo" xmlns="http://www.w3.org/2000/svg" width="198.344" height="35.5" viewBox="0 0 198.344 35.5">
  <metadata><?xpacket begin="﻿" id="W5M0MpCehiHzreSzNTczkc9d"?>
<x:xmpmeta xmlns:x="adobe:ns:meta/" x:xmptk="Adobe XMP Core 5.6-c138 79.159824, 2016/09/14-01:09:01        ">
   <rdf:RDF xmlns:rdf="http://www.w3.org/1999/02/22-rdf-syntax-ns#">
      <rdf:Description rdf:about=""/>
   </rdf:RDF>
</x:xmpmeta>
                                                                                                    
                                                                                                    
                                                                                                    
                                                                                                    
                                                                                                    
                                                                                                    
                                                                                                    
                                                                                                    
                                                                                                    
                                                                                                    
                                                                                                    
                                                                                                    
                                                                                                    
                                                                                                    
                                                                                                    
                                                                                                    
                                                                                                    
                                                                                                    
                                                                                                    
                                                                                                    
                           
<?xpacket end="w"?></metadata>
<defs>
    <style>
      .cls-1 {
        fill: #4bea78;
      }

      .cls-1, .cls-2 {
        fill-rule: evenodd;
      }

      .cls-2 {
        fill: #023cc1;
      }
    </style>
  </defs>
  <path id="Symbol" class="cls-1" d="M304.842,94.073c2.245,1.6-4.436,9.351-5.386,10.324-8.187,8.391,4.984,14.331,1.322,22.859-0.19.109-.4,0.185-0.587,0.3-0.656.5-11.692,1.089-17.339-1.328-1.857-.8-5.585-1.9-7.053-3.834-2.53-3.327,7.568-5.283,3.38-9.734-3.179-3.378-9.37-1.171-10.139,2.655-0.288,1.435-.057,3.074-0.294,4.5-2.39-.042-12.513-1.805-11.314-5.309,1.413-4.128,6.141-4.831,5.29-9.955-1.412-.74-2.8.308-3.82,1.033-2.5,1.775-12.878,4.236-11.755-2.065,2.618-1.3,4.636-2.907,8.228-2.212,1.884,0.364,4.174,2.048,6.369,1.548,3.426-.781,3.181-6.5,7.37-7.521,1.448-.354,3.607-0.714,5.069-0.959,7.025-1.175,15.66-2.641,23.069-1.4,2.222,0.372,5.649-.276,7.59,1.106M249.5,109.853c-2.036.907-8.653,8.112-8.506,8.554,1.211,0.2,3.3-.426,3.3.967-1.51,1.278-4.375,3.836-4.294,4.7,0.366,0.254.115,0.388,0.489,0.426,2.367,0.238,4.477-3.338,4.85-5.08,0.232-1.079,5.768-.174,5.779-0.279,0.176-1.6,6.247-8.269,6.465-9.586a23.445,23.445,0,0,1-8.081.295" transform="translate(-240 -92.5)"/>
  <path id="RIHA" class="cls-2" d="M323.886,95.351a1.175,1.175,0,0,0-1.161,1.161V124.29a1.175,1.175,0,0,0,1.161,1.161h5.633a1.175,1.175,0,0,0,1.161-1.161v-9.2h3.956l4.773,9.2a3.865,3.865,0,0,0,.58.774,1.632,1.632,0,0,0,1.226.387h5.848a0.954,0.954,0,0,0,.946-0.946,1.071,1.071,0,0,0-.129-0.473L342.548,113.8a8.5,8.5,0,0,0,3.784-3.246,9.925,9.925,0,0,0,1.333-5.354,10.585,10.585,0,0,0-.839-4.364,7.857,7.857,0,0,0-2.408-3.075,10.8,10.8,0,0,0-3.805-1.806,19.564,19.564,0,0,0-5.074-.6H323.886Zm6.794,6.665h4.859a5.877,5.877,0,0,1,2.988.688,3.22,3.22,0,0,1,0,4.988,5.867,5.867,0,0,1-2.988.688H330.68v-6.364ZM363.7,125.451a1.175,1.175,0,0,0,1.161-1.161V96.512a1.175,1.175,0,0,0-1.161-1.161h-5.633a1.175,1.175,0,0,0-1.161,1.161V124.29a1.175,1.175,0,0,0,1.161,1.161H363.7Zm30.142-30.1a1.175,1.175,0,0,0-1.161,1.161v10.363h-9.546V96.512a1.175,1.175,0,0,0-1.161-1.161h-5.633a1.175,1.175,0,0,0-1.161,1.161V124.29a1.1,1.1,0,0,0,.344.839,1.154,1.154,0,0,0,.817.322h5.633a1.175,1.175,0,0,0,1.161-1.161V113.755h9.546V124.29a1.175,1.175,0,0,0,1.161,1.161h5.633a1.175,1.175,0,0,0,1.161-1.161V96.512a1.175,1.175,0,0,0-1.161-1.161h-5.633Zm26.058,0a1.727,1.727,0,0,0-1.311.473,2.766,2.766,0,0,0-.624.946L408.6,123.86a1.95,1.95,0,0,0-.172.645,0.954,0.954,0,0,0,.946.946h5.418a1.694,1.694,0,0,0,1.226-.365,1.594,1.594,0,0,0,.451-0.71l1.2-3.569h11.438l1.2,3.569a1.58,1.58,0,0,0,.452.71,1.688,1.688,0,0,0,1.225.365h5.418a0.953,0.953,0,0,0,.946-0.946,1.975,1.975,0,0,0-.172-0.645l-9.374-27.09a2.777,2.777,0,0,0-.623-0.946,1.731,1.731,0,0,0-1.312-.473H419.9Zm3.483,8.471,3.483,10.32H419.9Z" transform="translate(-240 -92.5)"/>
</svg>
